<svg id="svg" version="1.1" xmlns="http://www.w3.org/2000/svg" xmlns:xlink="http://www.w3.org/1999/xlink" width="400" height="266.6666666666667" viewBox="0, 0, 400,266.6666666666667"><g id="svgg"><path id="path0" d="M0.000 133.333 L 0.000 266.667 200.000 266.667 L 400.000 266.667 400.000 133.333 L 400.000 0.000 200.000 0.000 L 0.000 0.000 0.000 133.333 M153.586 121.688 C 155.149 122.451,155.702 123.274,156.062 125.372 C 156.493 127.889,156.406 128.000,154.013 128.000 L 152.010 128.000 152.168 126.849 C 152.394 125.199,151.066 124.076,150.168 125.158 C 149.727 125.690,149.699 137.743,150.138 138.272 C 151.147 139.488,152.382 138.298,152.138 136.346 L 151.959 134.914 153.780 135.079 C 156.292 135.306,156.267 135.290,156.267 136.610 C 156.267 141.913,150.686 144.554,146.997 140.995 C 144.553 138.637,144.952 123.910,147.511 122.047 C 149.252 120.780,151.458 120.649,153.586 121.688 M222.403 121.506 C 223.831 122.067,224.793 123.464,225.124 125.459 C 225.534 127.937,225.479 128.000,222.913 128.000 C 220.949 128.000,220.762 127.956,220.939 127.533 C 221.760 125.581,220.410 123.895,219.086 125.219 C 218.441 125.863,218.461 137.465,219.108 138.179 C 220.213 139.400,221.609 138.214,221.136 136.455 C 220.740 134.983,220.869 134.901,223.212 135.138 L 225.200 135.338 225.141 137.147 C 225.108 138.163,224.887 139.365,224.637 139.892 C 222.877 143.599,216.023 143.139,214.940 139.240 C 214.593 137.991,214.583 125.488,214.928 124.285 C 215.729 121.494,219.141 120.225,222.403 121.506 M117.793 121.470 C 119.267 121.907,120.638 123.192,120.996 124.472 C 121.454 126.107,121.235 139.003,120.734 139.920 C 118.683 143.669,112.366 143.357,110.673 139.422 C 109.869 137.553,109.854 126.033,110.653 124.227 C 111.825 121.577,114.577 120.515,117.793 121.470 M261.537 121.473 C 264.632 122.392,265.149 124.050,265.023 132.667 C 264.936 138.633,264.915 138.832,264.270 139.959 C 262.374 143.271,257.005 143.470,254.805 140.310 L 254.000 139.154 254.000 131.756 L 254.000 124.358 254.751 123.374 C 256.373 121.248,258.640 120.612,261.537 121.473 M91.675 122.014 C 94.111 123.032,94.741 124.460,94.696 128.861 C 94.648 133.593,93.464 135.191,89.709 135.593 L 87.949 135.781 88.079 138.224 C 88.150 139.567,88.342 141.004,88.504 141.417 C 88.667 141.830,88.800 142.225,88.800 142.294 C 88.800 142.363,87.630 142.385,86.200 142.343 C 84.029 142.279,83.622 142.201,83.733 141.867 C 84.001 141.065,84.016 122.927,83.749 122.430 C 83.604 122.159,83.561 121.861,83.654 121.768 C 84.031 121.391,90.671 121.595,91.675 122.014 M104.944 122.101 C 108.197 123.579,109.220 130.376,106.673 133.592 L 105.876 134.599 106.309 135.899 C 106.547 136.615,106.829 137.320,106.936 137.467 C 107.042 137.613,107.342 138.393,107.602 139.200 C 107.862 140.007,108.298 140.985,108.571 141.374 C 109.295 142.408,109.313 142.400,106.249 142.400 C 103.560 142.400,103.438 142.376,103.599 141.871 C 103.903 140.911,102.176 135.467,101.567 135.467 C 101.239 135.467,101.270 141.530,101.600 141.733 C 102.350 142.197,101.620 142.400,99.200 142.400 C 97.733 142.400,96.533 142.355,96.533 142.300 C 96.533 142.245,96.700 141.727,96.904 141.149 C 97.479 139.521,97.513 124.572,96.946 122.966 C 96.719 122.325,96.533 121.755,96.533 121.700 C 96.533 121.306,103.976 121.661,104.944 122.101 M130.787 122.200 C 130.673 122.530,130.509 126.650,130.423 131.355 L 130.267 139.910 129.498 140.916 C 128.438 142.305,127.341 142.705,124.849 142.611 L 122.800 142.533 122.800 140.622 C 122.800 138.391,122.845 138.312,123.904 138.712 C 125.154 139.184,126.080 138.826,126.270 137.798 C 126.498 136.565,126.280 122.920,126.021 122.200 C 125.806 121.604,125.822 121.600,128.400 121.600 C 130.976 121.600,130.994 121.605,130.787 122.200 M143.467 123.764 L 143.467 125.929 142.733 125.726 C 142.330 125.615,141.040 125.511,139.867 125.495 L 137.733 125.467 137.704 128.502 L 137.675 131.536 140.037 131.402 C 141.693 131.307,142.396 131.357,142.386 131.567 C 142.351 132.311,141.662 135.761,141.519 135.903 C 141.432 135.990,140.977 135.928,140.507 135.764 C 140.038 135.601,139.186 135.467,138.614 135.467 L 137.573 135.467 137.653 137.000 L 137.733 138.533 140.000 138.508 C 141.247 138.494,142.507 138.434,142.800 138.375 C 143.292 138.275,143.339 138.428,143.411 140.333 L 143.489 142.400 138.260 142.400 L 133.031 142.400 133.249 141.800 C 133.369 141.470,133.467 137.060,133.467 132.000 C 133.467 126.940,133.369 122.530,133.249 122.200 L 133.031 121.600 138.249 121.600 L 143.467 121.600 143.467 123.764 M168.638 122.022 C 168.727 122.255,168.878 123.275,168.972 124.291 L 169.144 126.137 167.990 125.730 C 167.356 125.506,166.434 125.350,165.941 125.383 L 165.045 125.444 165.136 133.322 C 165.186 137.655,165.325 141.470,165.445 141.800 C 165.661 142.396,165.645 142.400,163.067 142.400 C 160.488 142.400,160.473 142.396,160.689 141.800 C 160.808 141.470,160.947 137.688,160.998 133.396 C 161.103 124.462,161.272 125.014,158.626 125.660 L 157.011 126.055 157.186 124.961 C 157.283 124.359,157.431 123.357,157.517 122.733 L 157.672 121.600 163.074 121.600 C 167.757 121.600,168.498 121.656,168.638 122.022 M185.246 122.472 C 186.991 123.683,187.467 124.983,187.467 128.545 C 187.467 133.302,186.308 134.975,182.620 135.546 L 180.745 135.837 180.863 138.652 C 180.928 140.200,181.074 141.677,181.186 141.933 C 181.373 142.360,181.167 142.400,178.807 142.400 L 176.224 142.400 176.445 141.533 C 176.737 140.391,176.732 123.591,176.440 122.442 L 176.213 121.550 180.197 121.642 C 184.045 121.730,184.217 121.758,185.246 122.472 M194.499 122.067 C 194.375 122.323,194.236 126.163,194.189 130.600 L 194.105 138.667 195.932 138.667 C 196.938 138.667,197.874 138.560,198.013 138.430 C 199.382 137.151,199.922 139.134,198.921 141.765 L 198.675 142.413 194.397 142.340 L 190.118 142.267 190.049 132.533 C 190.011 127.180,189.880 122.530,189.759 122.200 C 189.539 121.604,189.554 121.600,192.131 121.600 C 194.508 121.600,194.705 121.639,194.499 122.067 M209.228 122.480 C 209.137 122.963,209.184 123.953,209.333 124.680 C 209.661 126.284,210.748 132.222,211.577 136.933 C 211.912 138.840,212.324 140.738,212.493 141.151 C 212.988 142.360,212.918 142.400,210.299 142.400 L 207.799 142.400 207.934 141.200 L 208.069 140.000 206.400 140.000 L 204.731 140.000 204.866 141.200 L 205.001 142.400 202.472 142.400 C 200.169 142.400,199.960 142.358,200.131 141.933 C 200.395 141.281,201.287 136.956,201.879 133.467 C 202.152 131.853,202.568 129.573,202.803 128.400 C 203.039 127.227,203.254 125.217,203.282 123.935 L 203.333 121.603 206.363 121.601 L 209.393 121.600 209.228 122.480 M237.733 123.733 C 237.733 125.714,237.727 125.732,237.067 125.640 C 236.700 125.589,235.410 125.490,234.200 125.421 L 232.000 125.294 232.000 128.407 L 232.000 131.521 234.333 131.427 C 237.005 131.320,236.830 131.064,236.245 134.219 C 235.937 135.875,235.858 136.022,235.354 135.863 C 235.049 135.767,234.170 135.624,233.400 135.545 L 232.000 135.401 232.000 137.053 L 232.000 138.705 234.333 138.590 C 235.617 138.527,236.907 138.428,237.200 138.371 C 237.691 138.275,237.739 138.429,237.811 140.333 L 237.889 142.400 232.649 142.400 L 227.409 142.400 227.638 141.667 C 227.928 140.737,227.912 123.319,227.620 122.327 L 227.402 121.588 232.568 121.661 L 237.733 121.733 237.733 123.733 M244.872 122.333 C 244.759 122.737,244.667 124.927,244.667 127.200 L 244.667 131.333 245.955 131.415 L 247.243 131.498 247.155 126.549 L 247.067 121.599 249.527 121.600 L 251.987 121.600 251.727 122.284 C 251.392 123.163,251.382 140.374,251.715 141.535 L 251.963 142.400 249.515 142.400 L 247.067 142.400 247.160 138.933 L 247.254 135.467 245.865 135.467 L 244.476 135.467 244.594 138.467 C 244.659 140.117,244.805 141.677,244.918 141.933 C 245.106 142.359,244.905 142.400,242.629 142.400 L 240.133 142.400 240.133 132.000 L 240.133 121.600 242.605 121.600 L 245.077 121.600 244.872 122.333 M272.800 121.700 C 272.800 121.755,272.632 122.275,272.427 122.856 C 272.139 123.674,272.063 125.563,272.094 131.223 L 272.133 138.533 273.703 138.614 C 274.666 138.664,275.664 138.539,276.284 138.291 C 276.957 138.022,277.327 137.981,277.390 138.171 C 277.478 138.434,277.124 141.306,276.910 142.067 C 276.840 142.316,275.707 142.400,272.408 142.400 L 268.000 142.400 268.000 132.416 C 268.000 125.940,267.905 122.373,267.729 122.264 C 267.044 121.841,267.971 121.600,270.282 121.600 C 271.667 121.600,272.800 121.645,272.800 121.700 M287.007 121.883 C 290.048 122.727,290.533 124.082,290.533 131.733 C 290.533 141.715,290.028 142.395,282.614 142.399 L 278.961 142.400 279.229 141.630 C 279.396 141.151,279.467 137.225,279.416 131.230 L 279.333 121.600 282.667 121.601 C 284.500 121.602,286.453 121.729,287.007 121.883 M303.067 123.733 C 303.067 125.714,303.060 125.732,302.400 125.640 C 302.033 125.589,300.743 125.490,299.533 125.421 L 297.333 125.294 297.333 128.414 L 297.333 131.534 299.613 131.414 C 302.344 131.271,302.240 131.148,301.672 133.853 C 301.256 135.830,301.164 136.015,300.674 135.860 C 300.376 135.766,299.503 135.624,298.733 135.545 L 297.333 135.401 297.333 137.053 L 297.333 138.705 299.667 138.590 C 300.950 138.527,302.240 138.428,302.533 138.371 C 303.025 138.275,303.073 138.429,303.145 140.333 L 303.222 142.400 297.982 142.400 L 292.742 142.400 292.971 141.667 C 293.261 140.737,293.245 123.319,292.953 122.327 L 292.736 121.588 297.901 121.661 L 303.067 121.733 303.067 123.733 M312.827 121.902 C 316.409 123.098,317.685 130.856,314.795 133.872 L 314.092 134.605 314.633 135.903 C 314.931 136.616,315.548 138.188,316.005 139.395 C 316.461 140.602,316.947 141.659,317.084 141.744 C 317.817 142.197,317.068 142.400,314.667 142.400 L 312.000 142.400 312.000 141.475 C 312.000 139.852,310.415 135.467,309.829 135.467 C 309.503 135.467,309.640 141.151,309.985 141.933 C 310.173 142.360,309.963 142.400,307.509 142.400 L 304.827 142.400 305.227 141.444 C 305.666 140.392,305.660 123.427,305.220 122.200 L 305.004 121.600 308.462 121.600 C 310.364 121.600,312.328 121.736,312.827 121.902 M114.562 125.488 C 114.473 125.720,114.400 128.636,114.400 131.968 C 114.400 138.477,114.439 138.667,115.772 138.667 C 117.198 138.667,117.333 138.077,117.333 131.867 C 117.333 125.511,117.221 125.067,115.613 125.067 C 115.048 125.067,114.665 125.220,114.562 125.488 M258.123 126.067 C 257.679 127.552,257.881 137.643,258.366 138.226 C 258.876 138.840,260.179 138.794,260.524 138.151 C 260.690 137.841,260.800 135.333,260.800 131.867 C 260.800 125.441,260.719 125.067,259.335 125.067 C 258.510 125.067,258.392 125.164,258.123 126.067 M88.212 125.800 C 87.776 127.545,88.145 131.602,88.749 131.687 C 90.673 131.960,91.749 126.904,90.009 125.764 C 89.149 125.200,88.358 125.216,88.212 125.800 M101.333 128.400 L 101.333 131.467 102.114 131.467 C 103.457 131.467,104.285 129.737,103.901 127.733 C 103.831 127.367,103.764 126.917,103.753 126.733 C 103.719 126.153,102.692 125.333,102.000 125.333 L 101.333 125.333 101.333 128.400 M180.800 128.568 L 180.800 131.803 181.777 131.645 C 183.186 131.416,183.303 131.186,183.311 128.638 C 183.319 126.121,182.872 125.333,181.437 125.333 C 180.800 125.333,180.800 125.335,180.800 128.568 M283.733 132.000 L 283.733 138.667 284.533 138.667 C 286.386 138.667,286.824 136.915,286.614 130.338 C 286.483 126.227,286.085 125.333,284.385 125.333 L 283.733 125.333 283.733 132.000 M309.778 125.511 C 309.680 125.609,309.600 126.996,309.600 128.594 L 309.600 131.499 310.594 131.416 C 311.942 131.304,312.314 130.550,312.200 128.168 C 312.096 125.988,310.763 124.526,309.778 125.511 M206.387 129.667 C 206.380 129.703,206.210 130.753,206.010 132.000 C 205.810 133.247,205.560 134.657,205.456 135.133 L 205.267 136.000 206.385 136.000 C 207.321 136.000,207.482 135.924,207.373 135.533 C 207.301 135.277,207.100 133.837,206.925 132.333 C 206.664 130.092,206.481 129.186,206.387 129.667 " stroke="none" fill="#fbfbfb" fill-rule="evenodd"></path><path id="path1" d="M113.456 121.835 C 110.753 123.062,110.533 123.835,110.533 132.133 L 110.533 138.800 111.230 139.871 C 113.651 143.588,119.480 142.920,120.682 138.788 C 121.396 136.330,121.133 125.605,120.317 123.949 C 119.198 121.677,115.983 120.686,113.456 121.835 M148.667 121.753 C 146.182 123.049,146.027 123.560,145.914 130.839 C 145.797 138.357,145.982 139.560,147.461 140.897 C 150.854 143.962,156.330 141.234,155.954 136.667 L 155.867 135.600 154.090 135.522 L 152.314 135.443 152.458 136.516 C 152.729 138.538,151.152 139.685,149.867 138.400 C 149.140 137.673,149.037 126.141,149.748 125.126 C 150.778 123.656,152.760 124.897,152.449 126.817 L 152.296 127.757 154.082 127.679 L 155.867 127.600 155.949 126.753 C 156.318 122.938,152.035 119.997,148.667 121.753 M217.323 121.947 C 215.115 123.115,214.948 123.804,214.952 131.733 C 214.956 140.519,215.392 141.600,219.108 142.038 C 222.290 142.414,224.264 140.967,224.821 137.853 C 225.226 135.587,225.137 135.477,222.893 135.471 L 221.386 135.467 221.426 136.758 C 221.474 138.281,221.041 138.933,219.982 138.933 C 218.517 138.933,218.400 138.399,218.400 131.733 C 218.400 125.041,218.514 124.533,220.009 124.533 C 221.077 124.533,221.694 125.492,221.453 126.778 L 221.274 127.733 223.045 127.733 C 225.159 127.733,225.290 127.557,224.805 125.377 C 224.007 121.791,220.585 120.222,217.323 121.947 M257.762 121.524 C 256.071 121.958,254.793 123.387,254.382 125.303 C 253.952 127.304,254.152 138.592,254.633 139.467 C 256.710 143.251,262.529 143.213,264.121 139.405 C 264.624 138.200,264.731 125.624,264.249 124.351 C 263.410 122.135,260.436 120.840,257.762 121.524 M84.133 131.967 L 84.133 142.133 86.133 142.134 L 88.133 142.134 88.046 138.705 L 87.959 135.276 89.701 135.137 C 93.073 134.866,94.376 133.320,94.604 129.322 C 94.922 123.754,93.379 122.123,87.600 121.922 L 84.133 121.802 84.133 131.967 M97.200 132.000 L 97.200 142.133 99.200 142.133 L 101.200 142.134 101.108 138.705 C 101.015 135.255,101.294 134.262,102.069 135.283 C 102.564 135.934,104.000 140.354,104.000 141.227 L 104.000 142.133 106.271 142.133 L 108.542 142.133 107.914 140.867 C 107.568 140.170,106.881 138.433,106.386 137.007 L 105.487 134.414 106.186 133.674 C 108.285 131.450,108.208 125.340,106.053 123.251 C 104.989 122.220,103.384 121.867,99.764 121.867 L 97.200 121.867 97.200 132.000 M126.614 130.100 C 126.686 137.412,126.646 138.382,126.262 138.767 C 125.789 139.239,124.366 139.339,123.740 138.943 C 123.174 138.585,122.942 139.096,122.937 140.718 C 122.933 142.375,123.091 142.501,125.189 142.498 C 127.343 142.495,128.980 141.586,129.687 140.000 C 129.874 139.582,130.040 136.249,130.132 131.067 C 130.213 126.520,130.379 122.590,130.501 122.333 C 130.703 121.910,130.531 121.867,128.629 121.866 L 126.533 121.866 126.614 130.100 M133.816 131.229 C 133.867 137.053,133.797 140.883,133.630 141.363 L 133.361 142.133 138.147 142.133 L 142.933 142.133 142.933 140.460 L 142.933 138.787 140.133 138.890 L 137.333 138.994 137.333 137.125 C 137.333 135.709,137.430 135.220,137.734 135.103 C 138.220 134.917,140.228 135.170,140.846 135.495 C 141.328 135.749,141.406 135.535,141.750 133.021 L 141.921 131.775 139.694 131.821 L 137.467 131.867 137.467 128.533 L 137.467 125.200 139.268 125.121 C 140.258 125.078,141.478 125.155,141.978 125.293 L 142.887 125.544 142.991 124.039 C 143.150 121.733,143.439 121.867,138.305 121.866 L 133.733 121.866 133.816 131.229 M158.009 122.200 C 157.915 122.492,157.333 125.263,157.333 125.418 C 157.333 125.451,158.240 125.431,159.348 125.375 L 161.362 125.274 161.281 133.704 L 161.200 142.134 163.295 142.134 C 165.200 142.133,165.370 142.091,165.162 141.667 C 165.036 141.410,164.898 137.620,164.855 133.245 L 164.777 125.290 166.796 125.379 L 168.814 125.467 168.688 124.800 C 168.619 124.433,168.485 123.623,168.391 123.000 L 168.220 121.867 163.168 121.867 C 159.362 121.867,158.090 121.949,158.009 122.200 M176.933 132.000 L 176.933 142.133 178.800 142.134 L 180.667 142.134 180.667 138.734 L 180.667 135.333 181.467 135.265 C 186.234 134.855,187.435 133.233,187.140 127.599 C 186.897 122.942,185.468 121.867,179.520 121.867 L 176.933 121.867 176.933 132.000 M190.232 122.467 C 190.320 122.797,190.394 127.357,190.396 132.600 L 190.400 142.133 194.533 142.133 C 198.285 142.133,198.668 142.090,198.686 141.667 C 198.697 141.410,198.795 140.573,198.904 139.807 L 199.103 138.414 198.418 138.607 C 198.041 138.713,196.893 138.800,195.867 138.800 L 194.000 138.800 194.000 130.333 L 194.000 121.866 192.036 121.867 C 190.129 121.867,190.076 121.884,190.232 122.467 M203.821 122.640 C 203.977 123.417,203.868 124.182,202.566 131.467 C 202.212 133.447,201.676 136.449,201.376 138.139 C 201.076 139.829,200.750 141.419,200.653 141.673 C 200.495 142.084,200.692 142.133,202.489 142.133 L 204.501 142.133 204.450 141.000 L 204.400 139.867 206.361 139.788 L 208.322 139.709 208.226 140.921 L 208.129 142.133 210.198 142.133 C 211.336 142.133,212.265 142.043,212.263 141.933 C 212.261 141.823,212.072 140.953,211.844 140.000 C 211.451 138.359,211.093 136.402,209.489 127.130 C 209.114 124.965,208.836 122.925,208.870 122.597 C 208.931 122.019,208.848 121.998,206.298 121.923 L 203.663 121.847 203.821 122.640 M227.935 122.020 C 227.851 122.104,227.891 122.554,228.024 123.018 C 228.343 124.131,228.338 140.153,228.019 141.268 L 227.771 142.133 232.552 142.133 L 237.333 142.133 237.333 140.444 L 237.333 138.754 234.521 138.879 L 231.709 139.004 231.788 137.036 L 231.867 135.067 232.800 135.075 C 233.313 135.080,234.170 135.173,234.703 135.282 C 235.784 135.502,235.783 135.504,236.141 133.021 L 236.321 131.775 234.094 131.821 L 231.867 131.867 231.792 128.467 L 231.717 125.067 233.660 125.067 C 234.729 125.067,235.993 125.178,236.468 125.315 L 237.333 125.563 237.333 123.715 L 237.333 121.867 232.711 121.867 C 230.169 121.867,228.020 121.936,227.935 122.020 M240.749 131.229 C 240.801 137.053,240.730 140.883,240.563 141.363 L 240.294 142.133 242.347 142.134 L 244.400 142.134 244.312 138.520 L 244.225 134.907 245.912 134.987 L 247.600 135.067 247.677 137.847 C 247.719 139.376,247.635 140.966,247.490 141.380 L 247.228 142.133 249.341 142.133 L 251.453 142.133 251.260 141.267 C 251.154 140.790,251.067 136.620,251.067 132.000 C 251.067 127.380,251.154 123.210,251.260 122.733 L 251.453 121.867 249.525 121.867 L 247.596 121.867 247.694 126.800 L 247.792 131.733 246.008 131.733 L 244.224 131.733 244.312 126.800 L 244.400 121.866 242.533 121.866 L 240.667 121.866 240.749 131.229 M268.099 122.467 C 268.187 122.797,268.261 127.357,268.263 132.600 L 268.267 142.133 272.367 142.133 L 276.467 142.133 276.661 141.267 C 277.278 138.508,277.288 138.360,276.834 138.543 C 276.595 138.640,275.405 138.784,274.189 138.864 L 271.978 139.010 272.056 130.438 L 272.133 121.866 270.036 121.866 C 267.990 121.867,267.942 121.882,268.099 122.467 M279.653 122.565 C 279.926 123.548,279.934 140.425,279.662 141.400 L 279.457 142.133 282.544 142.133 C 289.569 142.133,290.402 141.035,290.397 131.787 C 290.392 123.100,289.691 122.166,282.986 121.924 L 279.439 121.796 279.653 122.565 M293.236 122.333 C 293.562 123.007,293.682 140.061,293.368 141.197 L 293.110 142.133 297.888 142.133 L 302.667 142.133 302.667 140.444 L 302.667 138.754 299.854 138.879 L 297.042 139.004 297.121 137.036 L 297.200 135.067 298.133 135.075 C 298.647 135.080,299.503 135.173,300.036 135.282 C 301.118 135.502,301.117 135.504,301.475 133.021 L 301.654 131.775 299.427 131.821 L 297.200 131.867 297.125 128.467 L 297.051 125.067 298.994 125.067 C 300.062 125.067,301.326 125.178,301.802 125.315 L 302.667 125.563 302.667 123.715 L 302.667 121.867 297.838 121.867 C 293.331 121.867,293.025 121.898,293.236 122.333 M305.533 122.023 C 305.447 122.108,305.492 122.508,305.632 122.911 C 305.946 123.812,305.829 141.004,305.505 141.667 C 305.297 142.091,305.467 142.133,307.371 142.133 L 309.467 142.134 309.374 138.705 C 309.296 135.822,309.346 135.252,309.688 135.121 C 310.428 134.837,311.935 138.194,312.194 140.703 L 312.341 142.133 314.580 142.133 C 316.712 142.133,316.806 142.109,316.542 141.617 C 316.280 141.126,314.262 135.869,313.946 134.852 C 313.855 134.558,314.017 134.167,314.362 133.845 C 316.714 131.653,316.570 124.777,314.135 122.977 C 312.899 122.063,306.232 121.323,305.533 122.023 M116.959 125.095 C 117.428 125.613,117.467 126.134,117.467 131.854 C 117.467 138.718,117.417 138.933,115.844 138.933 C 113.975 138.933,113.867 138.542,113.867 131.804 L 113.867 125.842 114.521 125.188 C 115.324 124.385,116.283 124.348,116.959 125.095 M260.570 125.043 C 261.630 125.900,261.687 137.474,260.637 138.525 C 260.064 139.098,258.767 139.033,258.133 138.400 C 257.298 137.564,257.314 126.302,258.153 125.236 C 258.808 124.403,259.693 124.333,260.570 125.043 M90.591 125.767 C 90.808 126.064,90.933 127.092,90.933 128.584 C 90.933 131.327,90.539 132.000,88.933 132.000 L 88.000 132.000 88.000 128.498 L 88.000 124.996 89.124 125.147 C 89.745 125.231,90.401 125.508,90.591 125.767 M103.657 125.767 C 104.114 126.392,104.122 130.670,103.667 131.273 C 103.483 131.517,102.823 131.795,102.200 131.892 L 101.067 132.068 101.067 128.532 L 101.067 124.996 102.191 125.147 C 102.812 125.231,103.468 125.508,103.657 125.767 M183.267 125.888 C 183.629 126.331,183.733 126.961,183.733 128.696 C 183.733 131.382,183.334 132.000,181.600 132.000 L 180.533 132.000 180.533 128.711 C 180.533 126.902,180.623 125.332,180.733 125.221 C 181.094 124.858,182.790 125.305,183.267 125.888 M285.511 125.350 C 286.644 125.781,286.658 125.862,286.663 132.048 C 286.667 138.739,286.468 139.244,283.960 138.889 L 283.333 138.800 283.262 132.272 C 283.175 124.371,283.149 124.452,285.511 125.350 M311.942 125.695 C 313.297 127.050,312.475 131.570,310.817 131.881 C 309.392 132.148,309.333 132.008,309.333 128.349 L 309.333 124.996 310.437 125.144 C 311.044 125.226,311.721 125.473,311.942 125.695 M207.718 135.400 C 207.729 136.043,207.613 136.274,207.267 136.295 C 206.650 136.332,205.219 136.234,205.129 136.148 C 204.994 136.019,205.867 129.996,206.174 128.933 C 206.491 127.839,207.672 132.786,207.718 135.400 " stroke="none" fill="#0a376d" fill-rule="evenodd"></path><path id="path2" d="M150.333 121.255 C 150.663 121.318,151.203 121.318,151.533 121.255 C 151.863 121.191,151.593 121.139,150.933 121.139 C 150.273 121.139,150.003 121.191,150.333 121.255 M219.403 121.255 C 219.735 121.319,220.215 121.317,220.470 121.250 C 220.725 121.183,220.453 121.131,219.867 121.134 C 219.280 121.137,219.071 121.191,219.403 121.255 M85.267 121.797 C 86.183 121.850,87.683 121.850,88.600 121.797 C 89.517 121.745,88.767 121.703,86.933 121.703 C 85.100 121.703,84.350 121.745,85.267 121.797 M96.804 122.067 C 96.807 122.363,96.880 122.423,97.004 122.231 C 97.112 122.064,97.440 121.868,97.733 121.795 C 98.142 121.693,98.095 121.655,97.533 121.631 C 97.000 121.608,96.801 121.727,96.804 122.067 M99.533 121.796 C 100.230 121.851,101.370 121.851,102.067 121.796 C 102.763 121.741,102.193 121.696,100.800 121.696 C 99.407 121.696,98.837 121.741,99.533 121.796 M127.140 121.796 C 127.768 121.852,128.728 121.851,129.274 121.794 C 129.820 121.737,129.307 121.690,128.133 121.691 C 126.960 121.692,126.513 121.739,127.140 121.796 M135.814 121.799 C 137.251 121.847,139.531 121.847,140.881 121.799 C 142.230 121.750,141.053 121.711,138.267 121.711 C 135.480 121.711,134.376 121.751,135.814 121.799 M159.600 121.784 C 164.202 121.975,168.473 121.983,168.359 121.800 C 168.291 121.690,165.872 121.624,162.984 121.653 C 160.096 121.682,158.573 121.741,159.600 121.784 M176.440 121.800 C 176.372 121.910,177.295 121.968,178.491 121.928 C 182.411 121.799,182.854 121.694,179.682 121.647 C 177.968 121.621,176.509 121.690,176.440 121.800 M189.774 121.800 C 189.705 121.910,190.388 121.967,191.291 121.926 C 194.232 121.793,194.580 121.686,192.216 121.643 C 190.941 121.619,189.842 121.690,189.774 121.800 M203.498 122.200 C 203.520 122.637,203.561 122.676,203.649 122.342 C 203.751 121.953,204.194 121.872,206.618 121.799 L 209.467 121.713 206.467 121.657 C 203.508 121.601,203.467 121.608,203.498 122.200 M230.467 121.799 C 231.750 121.847,233.850 121.847,235.133 121.799 C 236.417 121.750,235.367 121.710,232.800 121.710 C 230.233 121.710,229.183 121.750,230.467 121.799 M240.174 121.800 C 240.105 121.910,240.788 121.967,241.691 121.926 C 244.632 121.793,244.980 121.686,242.616 121.643 C 241.341 121.619,240.242 121.690,240.174 121.800 M246.933 121.800 C 246.933 121.910,247.683 121.967,248.600 121.926 C 251.609 121.792,251.908 121.686,249.400 121.643 C 248.043 121.619,246.933 121.690,246.933 121.800 M267.754 122.067 C 267.767 122.345,267.830 122.399,267.910 122.200 C 268.001 121.973,268.712 121.867,270.133 121.867 C 271.555 121.867,272.265 121.973,272.357 122.200 C 272.437 122.399,272.500 122.345,272.512 122.067 C 272.531 121.655,272.249 121.600,270.133 121.600 C 268.017 121.600,267.736 121.655,267.754 122.067 M279.378 121.778 C 279.280 121.876,279.202 122.086,279.204 122.244 C 279.207 122.423,279.287 122.409,279.414 122.209 C 279.550 121.995,280.652 121.856,282.677 121.800 L 285.733 121.714 282.644 121.657 C 280.946 121.626,279.476 121.680,279.378 121.778 M292.974 121.800 C 292.906 121.910,294.368 121.969,296.225 121.931 C 302.453 121.802,303.104 121.705,298.082 121.652 C 295.341 121.624,293.042 121.690,292.974 121.800 M305.240 121.800 C 305.172 121.910,306.095 121.968,307.291 121.928 C 311.211 121.799,311.654 121.694,308.482 121.647 C 306.768 121.621,305.309 121.690,305.240 121.800 M143.197 123.921 C 143.125 124.978,143.163 125.746,143.280 125.627 C 143.398 125.509,143.457 124.645,143.411 123.706 L 143.327 122.000 143.197 123.921 M244.390 127.400 L 244.400 131.600 245.802 131.623 L 247.203 131.646 245.875 131.543 L 244.547 131.439 244.463 127.319 L 244.379 123.199 244.390 127.400 M251.320 132.000 C 251.320 136.913,251.356 138.923,251.400 136.467 C 251.444 134.010,251.444 129.990,251.400 127.533 C 251.356 125.077,251.320 127.087,251.320 132.000 M176.919 132.000 C 176.919 136.767,176.955 138.717,177.000 136.333 C 177.044 133.950,177.044 130.050,177.000 127.667 C 176.955 125.283,176.919 127.233,176.919 132.000 M190.254 132.933 C 190.254 138.213,190.289 140.411,190.333 137.817 C 190.376 135.224,190.377 130.904,190.333 128.217 C 190.289 125.531,190.254 127.653,190.254 132.933 M133.719 132.133 C 133.719 136.827,133.755 138.709,133.800 136.317 C 133.844 133.924,133.844 130.084,133.799 127.783 C 133.755 125.482,133.719 127.440,133.719 132.133 M231.835 128.400 C 231.836 130.160,231.879 130.845,231.931 129.923 C 231.983 129.000,231.983 127.560,231.930 126.723 C 231.877 125.885,231.835 126.640,231.835 128.400 M297.168 128.400 C 297.169 130.160,297.212 130.845,297.264 129.923 C 297.317 129.000,297.316 127.560,297.263 126.723 C 297.211 125.885,297.168 126.640,297.168 128.400 M137.434 128.533 C 137.434 130.220,137.477 130.910,137.530 130.067 C 137.583 129.223,137.583 127.843,137.530 127.000 C 137.477 126.157,137.434 126.847,137.434 128.533 M145.715 131.733 C 145.715 135.180,145.753 136.590,145.799 134.867 C 145.846 133.143,145.846 130.323,145.799 128.600 C 145.753 126.877,145.715 128.287,145.715 131.733 M218.514 131.733 C 218.514 135.033,218.552 136.383,218.599 134.733 C 218.646 133.083,218.646 130.383,218.599 128.733 C 218.552 127.083,218.514 128.433,218.514 131.733 M121.180 131.867 C 121.181 135.093,121.219 136.377,121.266 134.719 C 121.313 133.060,121.313 130.420,121.266 128.852 C 121.218 127.283,121.180 128.640,121.180 131.867 M149.447 131.733 C 149.447 134.887,149.485 136.177,149.532 134.600 C 149.579 133.023,149.579 130.443,149.532 128.867 C 149.485 127.290,149.447 128.580,149.447 131.733 M110.246 131.867 C 110.246 134.947,110.285 136.170,110.332 134.586 C 110.380 133.001,110.380 130.481,110.332 128.986 C 110.285 127.490,110.246 128.787,110.246 131.867 M257.712 131.733 C 257.712 134.740,257.751 135.970,257.799 134.467 C 257.846 132.963,257.846 130.503,257.799 129.000 C 257.751 127.497,257.712 128.727,257.712 131.733 M183.549 128.667 C 183.551 129.547,183.601 129.875,183.660 129.395 C 183.719 128.916,183.718 128.196,183.657 127.795 C 183.596 127.395,183.548 127.787,183.549 128.667 M153.667 127.917 C 153.923 127.984,154.343 127.984,154.600 127.917 C 154.857 127.850,154.647 127.795,154.133 127.795 C 153.620 127.795,153.410 127.850,153.667 127.917 M222.733 127.917 C 222.990 127.984,223.410 127.984,223.667 127.917 C 223.923 127.850,223.713 127.795,223.200 127.795 C 222.687 127.795,222.477 127.850,222.733 127.917 M137.443 135.565 C 137.366 135.766,137.340 136.576,137.385 137.365 L 137.467 138.800 139.534 138.818 L 141.602 138.836 139.601 138.740 L 137.600 138.644 137.600 137.071 L 137.600 135.497 138.733 135.395 L 139.867 135.293 138.725 135.247 C 137.970 135.216,137.536 135.324,137.443 135.565 M231.843 135.565 C 231.766 135.766,231.740 136.576,231.785 137.365 L 231.867 138.800 233.934 138.818 L 236.002 138.836 234.001 138.740 L 232.000 138.644 232.000 137.071 L 232.000 135.497 233.133 135.395 L 234.267 135.293 233.125 135.247 C 232.370 135.216,231.936 135.324,231.843 135.565 M244.368 138.133 C 244.368 139.820,244.411 140.510,244.464 139.667 C 244.517 138.823,244.517 137.443,244.464 136.600 C 244.411 135.757,244.368 136.447,244.368 138.133 M297.176 135.565 C 297.099 135.766,297.073 136.576,297.118 137.365 L 297.200 138.800 299.268 138.818 L 301.335 138.836 299.334 138.740 L 297.333 138.644 297.333 137.071 L 297.333 135.497 298.467 135.395 L 299.600 135.293 298.458 135.247 C 297.703 135.216,297.269 135.324,297.176 135.565 M143.290 140.267 C 143.290 141.367,143.337 141.817,143.394 141.267 C 143.452 140.717,143.452 139.817,143.394 139.267 C 143.337 138.717,143.290 139.167,143.290 140.267 M83.754 141.933 C 83.736 142.345,84.017 142.400,86.133 142.400 C 88.249 142.400,88.531 142.345,88.512 141.933 C 88.500 141.655,88.437 141.601,88.357 141.800 C 88.265 142.027,87.555 142.133,86.133 142.133 C 84.712 142.133,84.001 142.027,83.910 141.800 C 83.830 141.601,83.767 141.655,83.754 141.933 M176.504 142.211 C 176.621 142.328,177.725 142.387,178.958 142.343 L 181.200 142.263 178.745 142.131 C 177.395 142.059,176.387 142.095,176.504 142.211 " stroke="none" fill="#a4b1c2" fill-rule="evenodd"></path><path id="path3" d="M115.403 121.255 C 115.735 121.319,116.215 121.317,116.470 121.250 C 116.725 121.183,116.453 121.131,115.867 121.134 C 115.280 121.137,115.071 121.191,115.403 121.255 M237.597 123.679 L 237.728 125.733 237.810 123.893 C 237.856 122.881,237.797 121.956,237.680 121.838 C 237.563 121.721,237.525 122.549,237.597 123.679 M111.583 122.733 L 110.800 123.600 111.667 122.817 C 112.475 122.087,112.656 121.867,112.450 121.867 C 112.404 121.867,112.014 122.257,111.583 122.733 M118.933 121.950 C 118.933 121.996,119.323 122.386,119.800 122.817 L 120.667 123.600 119.883 122.733 C 119.153 121.925,118.933 121.744,118.933 121.950 M303.023 123.733 C 303.023 124.833,303.070 125.283,303.128 124.733 C 303.185 124.183,303.185 123.283,303.128 122.733 C 303.070 122.183,303.023 122.633,303.023 123.733 M287.867 122.303 C 288.013 122.432,288.553 122.897,289.066 123.335 L 289.998 124.133 289.332 123.376 C 288.966 122.959,288.427 122.494,288.133 122.343 C 287.840 122.192,287.720 122.174,287.867 122.303 M203.529 123.467 C 203.529 123.980,203.583 124.190,203.650 123.933 C 203.718 123.677,203.718 123.257,203.650 123.000 C 203.583 122.743,203.529 122.953,203.529 123.467 M84.120 132.000 C 84.120 136.913,84.156 138.923,84.200 136.467 C 84.244 134.010,84.244 129.990,84.200 127.533 C 84.156 125.077,84.120 127.087,84.120 132.000 M240.386 132.133 C 240.386 137.120,240.422 139.122,240.466 136.583 C 240.510 134.044,240.510 129.964,240.466 127.516 C 240.422 125.069,240.386 127.147,240.386 132.133 M247.308 127.333 C 247.308 129.680,247.349 130.604,247.399 129.387 C 247.448 128.170,247.448 126.250,247.398 125.121 C 247.348 123.991,247.308 124.987,247.308 127.333 M268.121 132.800 C 268.121 138.153,268.156 140.343,268.200 137.667 C 268.243 134.990,268.243 130.610,268.200 127.933 C 268.156 125.257,268.121 127.447,268.121 132.800 M279.586 132.000 C 279.586 136.913,279.622 138.923,279.666 136.467 C 279.710 134.010,279.710 129.990,279.666 127.533 C 279.622 125.077,279.586 127.087,279.586 132.000 M126.515 129.867 C 126.515 133.313,126.553 134.723,126.599 133.000 C 126.646 131.277,126.646 128.457,126.599 126.733 C 126.553 125.010,126.515 126.420,126.515 129.867 M101.187 128.466 L 101.200 131.600 101.937 131.632 C 102.594 131.661,102.602 131.653,102.012 131.549 C 101.359 131.434,101.349 131.392,101.262 128.383 L 101.173 125.332 101.187 128.466 M161.066 132.346 L 161.199 139.333 161.271 132.551 C 161.310 128.821,161.251 125.677,161.138 125.564 C 161.025 125.452,160.993 128.503,161.066 132.346 M149.707 129.600 C 149.707 131.873,149.748 132.803,149.798 131.667 C 149.848 130.530,149.848 128.670,149.798 127.533 C 149.748 126.397,149.707 127.327,149.707 129.600 M156.043 126.581 C 156.007 127.509,155.899 127.716,155.400 127.812 L 154.800 127.927 155.408 127.964 C 156.130 128.007,156.344 127.571,156.195 126.359 C 156.094 125.541,156.082 125.559,156.043 126.581 M264.915 131.867 C 264.915 135.387,264.953 136.790,264.999 134.985 C 265.046 133.180,265.045 130.300,264.999 128.585 C 264.953 126.870,264.915 128.347,264.915 131.867 M283.582 132.133 C 283.582 135.800,283.620 137.337,283.666 135.549 C 283.712 133.761,283.712 130.761,283.666 128.882 C 283.620 127.004,283.582 128.467,283.582 132.133 M225.107 126.715 C 225.074 127.505,224.950 127.719,224.467 127.812 L 223.867 127.927 224.475 127.964 C 225.180 128.006,225.420 127.555,225.260 126.489 C 225.163 125.841,225.141 125.874,225.107 126.715 M114.247 131.867 C 114.247 135.093,114.286 136.377,114.333 134.719 C 114.379 133.060,114.379 130.420,114.332 128.852 C 114.285 127.283,114.247 128.640,114.247 131.867 M260.914 131.867 C 260.914 135.093,260.952 136.377,260.999 134.719 C 261.046 133.060,261.046 130.420,260.999 128.852 C 260.952 127.283,260.913 128.640,260.914 131.867 M316.076 127.333 C 316.078 128.067,316.130 128.335,316.191 127.930 C 316.253 127.524,316.251 126.924,316.188 126.596 C 316.124 126.268,316.074 126.600,316.076 127.333 M107.825 128.400 C 107.826 129.573,107.873 130.020,107.929 129.393 C 107.985 128.766,107.984 127.806,107.927 127.260 C 107.870 126.713,107.824 127.227,107.825 128.400 M90.756 128.533 C 90.756 129.633,90.803 130.083,90.861 129.533 C 90.918 128.983,90.918 128.083,90.861 127.533 C 90.803 126.983,90.756 127.433,90.756 128.533 M290.512 132.000 C 290.512 135.007,290.551 136.237,290.599 134.733 C 290.646 133.230,290.646 130.770,290.599 129.267 C 290.551 127.763,290.512 128.993,290.512 132.000 M309.451 129.467 L 309.467 131.600 310.203 131.632 C 310.857 131.661,310.865 131.652,310.280 131.549 C 309.656 131.439,309.616 131.323,309.528 129.383 L 309.434 127.333 309.451 129.467 M316.067 130.000 C 316.070 130.587,316.125 130.795,316.189 130.464 C 316.252 130.132,316.250 129.652,316.183 129.397 C 316.116 129.142,316.064 129.413,316.067 130.000 M202.300 130.544 C 202.208 130.782,202.144 131.177,202.156 131.422 C 202.169 131.666,202.285 131.513,202.414 131.080 C 202.665 130.238,202.577 129.822,202.300 130.544 M141.650 131.381 C 141.898 131.446,142.154 131.702,142.219 131.950 C 142.304 132.269,142.347 132.225,142.369 131.800 C 142.393 131.338,142.262 131.207,141.800 131.231 C 141.375 131.253,141.331 131.296,141.650 131.381 M301.384 131.365 C 301.631 131.439,301.894 131.702,301.968 131.950 C 302.066 132.276,302.088 132.254,302.048 131.870 C 302.016 131.559,301.774 131.317,301.464 131.285 C 301.079 131.246,301.057 131.268,301.384 131.365 M138.327 131.659 C 138.801 131.718,139.641 131.719,140.194 131.661 C 140.747 131.604,140.360 131.555,139.333 131.554 C 138.307 131.553,137.854 131.600,138.327 131.659 M232.727 131.659 C 233.201 131.718,234.041 131.719,234.594 131.661 C 235.147 131.604,234.760 131.555,233.733 131.554 C 232.707 131.553,232.254 131.600,232.727 131.659 M298.061 131.659 C 298.534 131.718,299.374 131.719,299.927 131.661 C 300.481 131.604,300.093 131.555,299.067 131.554 C 298.040 131.553,297.587 131.600,298.061 131.659 M210.712 133.067 C 210.726 133.760,211.145 134.898,211.155 134.267 C 211.159 133.973,211.059 133.493,210.933 133.200 C 210.793 132.873,210.707 132.822,210.712 133.067 M149.685 136.267 C 149.685 137.220,149.734 137.610,149.793 137.133 C 149.852 136.657,149.852 135.877,149.793 135.400 C 149.734 134.923,149.685 135.313,149.685 136.267 M220.978 135.111 C 220.880 135.209,220.802 135.419,220.804 135.578 C 220.807 135.770,220.874 135.764,221.004 135.560 C 221.112 135.392,221.500 135.198,221.867 135.130 L 222.533 135.006 221.844 134.970 C 221.466 134.950,221.076 135.013,220.978 135.111 M225.060 136.479 L 225.189 137.733 225.279 136.698 C 225.329 136.129,225.271 135.564,225.151 135.444 C 225.030 135.323,224.989 135.789,225.060 136.479 M245.791 135.388 L 247.182 135.494 247.272 138.148 L 247.363 140.801 247.348 138.067 L 247.333 135.333 245.867 135.308 L 244.400 135.282 245.791 135.388 M88.333 135.650 C 88.590 135.718,89.010 135.718,89.267 135.650 C 89.523 135.583,89.313 135.529,88.800 135.529 C 88.287 135.529,88.077 135.583,88.333 135.650 M101.165 138.133 C 101.165 139.673,101.209 140.303,101.263 139.533 C 101.317 138.763,101.317 137.503,101.263 136.733 C 101.209 135.963,101.165 136.593,101.165 138.133 M181.133 135.650 C 181.390 135.718,181.810 135.718,182.067 135.650 C 182.323 135.583,182.113 135.529,181.600 135.529 C 181.087 135.529,180.877 135.583,181.133 135.650 M309.395 136.267 C 309.395 136.780,309.450 136.990,309.517 136.733 C 309.584 136.477,309.584 136.057,309.517 135.800 C 309.450 135.543,309.395 135.753,309.395 136.267 M205.800 136.188 C 206.130 136.252,206.670 136.252,207.000 136.188 C 207.330 136.125,207.060 136.073,206.400 136.073 C 205.740 136.073,205.470 136.125,205.800 136.188 M309.419 138.933 C 309.419 139.887,309.467 140.277,309.526 139.800 C 309.585 139.323,309.585 138.543,309.526 138.067 C 309.467 137.590,309.419 137.980,309.419 138.933 M198.467 138.142 C 197.574 138.501,197.741 138.683,198.667 138.360 C 199.107 138.207,199.467 138.033,199.467 137.974 C 199.467 137.816,199.142 137.870,198.467 138.142 M237.254 138.321 C 237.437 138.451,237.617 139.403,237.674 140.541 L 237.773 142.533 237.753 140.421 C 237.738 138.782,237.644 138.285,237.333 138.201 C 237.051 138.125,237.027 138.160,237.254 138.321 M302.587 138.321 C 302.770 138.451,302.950 139.403,303.007 140.541 L 303.106 142.533 303.087 140.421 C 303.071 138.782,302.977 138.285,302.667 138.201 C 302.384 138.125,302.361 138.160,302.587 138.321 M204.641 140.105 C 204.557 140.323,204.544 140.719,204.613 140.984 C 204.695 141.300,204.749 141.213,204.769 140.733 C 204.808 139.806,207.858 139.560,208.074 140.467 C 208.159 140.822,208.179 140.806,208.160 140.400 C 208.125 139.699,204.900 139.428,204.641 140.105 M154.517 141.133 L 153.733 142.000 154.600 141.217 C 155.077 140.786,155.467 140.396,155.467 140.350 C 155.467 140.144,155.247 140.325,154.517 141.133 M212.145 140.867 C 212.245 141.197,212.436 141.584,212.571 141.727 C 212.705 141.871,212.679 141.601,212.514 141.127 C 212.177 140.159,211.865 139.938,212.145 140.867 M160.686 141.486 C 160.588 141.877,160.559 142.248,160.622 142.311 C 160.685 142.373,160.816 142.105,160.914 141.714 C 161.012 141.323,161.041 140.952,160.978 140.889 C 160.915 140.827,160.784 141.095,160.686 141.486 " stroke="none" fill="#d1d4de" fill-rule="evenodd"></path><path id="path4" d="M147.525 122.333 C 146.887 122.957,146.876 122.987,147.454 122.537 C 148.592 121.651,148.646 121.600,148.458 121.600 C 148.357 121.600,147.937 121.930,147.525 122.333 M176.571 122.133 C 176.571 122.353,176.674 122.773,176.800 123.067 C 176.944 123.403,177.029 123.452,177.029 123.200 C 177.029 122.980,176.926 122.560,176.800 122.267 C 176.656 121.930,176.571 121.881,176.571 122.133 M237.423 123.733 C 237.423 124.833,237.470 125.283,237.528 124.733 C 237.585 124.183,237.585 123.283,237.528 122.733 C 237.470 122.183,237.423 122.633,237.423 123.733 M302.756 123.733 C 302.756 124.833,302.803 125.283,302.861 124.733 C 302.918 124.183,302.918 123.283,302.861 122.733 C 302.803 122.183,302.756 122.633,302.756 123.733 M193.994 130.733 L 194.000 138.800 195.801 138.820 L 197.602 138.840 195.872 138.741 L 194.141 138.642 194.065 130.654 L 193.988 122.666 193.994 130.733 M143.013 124.267 C 143.013 125.073,143.063 125.403,143.124 125.000 C 143.185 124.597,143.185 123.937,143.124 123.533 C 143.063 123.130,143.013 123.460,143.013 124.267 M240.653 132.000 C 240.653 137.060,240.689 139.130,240.733 136.600 C 240.777 134.070,240.777 129.930,240.733 127.400 C 240.689 124.870,240.653 126.940,240.653 132.000 M130.251 130.667 C 130.251 134.847,130.288 136.557,130.333 134.467 C 130.378 132.377,130.378 128.957,130.333 126.867 C 130.288 124.777,130.251 126.487,130.251 130.667 M247.413 127.467 C 247.369 129.814,247.423 131.734,247.533 131.734 C 247.643 131.733,247.733 129.813,247.733 127.467 C 247.733 121.946,247.515 121.946,247.413 127.467 M305.720 132.000 C 305.720 136.913,305.756 138.923,305.800 136.467 C 305.844 134.010,305.844 129.990,305.800 127.533 C 305.756 125.077,305.720 127.087,305.720 132.000 M228.119 132.133 C 228.119 136.973,228.155 138.991,228.199 136.617 C 228.244 134.243,228.244 130.283,228.200 127.817 C 228.156 125.351,228.119 127.293,228.119 132.133 M279.852 132.000 C 279.852 136.767,279.889 138.717,279.933 136.333 C 279.977 133.950,279.977 130.050,279.933 127.667 C 279.889 125.283,279.852 127.233,279.852 132.000 M293.453 132.133 C 293.453 136.973,293.489 138.991,293.533 136.617 C 293.577 134.243,293.577 130.283,293.533 127.817 C 293.489 125.351,293.453 127.293,293.453 132.133 M115.733 124.727 C 116.100 124.794,116.640 125.048,116.933 125.291 C 117.462 125.730,117.463 125.728,116.959 125.133 C 116.649 124.767,116.181 124.547,115.759 124.570 L 115.067 124.606 115.733 124.727 M149.833 125.000 C 149.514 125.406,149.519 125.426,149.867 125.157 C 150.087 124.987,150.627 124.795,151.067 124.730 L 151.867 124.613 151.033 124.573 C 150.518 124.549,150.059 124.712,149.833 125.000 M219.096 124.752 C 219.022 124.872,219.316 124.918,219.750 124.854 C 220.184 124.791,220.747 124.903,221.002 125.103 C 221.423 125.432,221.432 125.422,221.101 125.000 C 220.729 124.525,219.342 124.354,219.096 124.752 M258.563 124.752 C 258.489 124.872,258.782 124.918,259.214 124.855 C 259.646 124.791,260.000 124.693,260.000 124.636 C 260.000 124.433,258.695 124.538,258.563 124.752 M114.282 125.393 C 113.836 126.029,113.637 137.693,114.067 137.959 C 114.177 138.027,114.232 135.380,114.190 132.076 C 114.125 126.994,114.178 125.972,114.530 125.435 C 115.055 124.633,114.840 124.596,114.282 125.393 M251.050 131.867 C 251.050 135.827,251.087 137.484,251.133 135.549 C 251.178 133.615,251.178 130.375,251.133 128.349 C 251.087 126.324,251.050 127.907,251.050 131.867 M88.333 125.250 C 88.590 125.318,89.010 125.318,89.267 125.250 C 89.523 125.183,89.313 125.129,88.800 125.129 C 88.287 125.129,88.077 125.183,88.333 125.250 M101.400 125.250 C 101.657 125.318,102.077 125.318,102.333 125.250 C 102.590 125.183,102.380 125.129,101.867 125.129 C 101.353 125.129,101.143 125.183,101.400 125.250 M137.507 125.267 C 137.439 125.377,138.062 125.433,138.892 125.391 C 141.496 125.261,141.810 125.148,139.682 125.107 C 138.554 125.085,137.576 125.157,137.507 125.267 M180.649 125.416 C 180.576 125.607,180.554 127.197,180.600 128.949 L 180.685 132.133 180.743 128.751 L 180.800 125.369 181.533 125.258 L 182.267 125.147 181.525 125.107 C 181.117 125.085,180.723 125.224,180.649 125.416 M232.733 125.262 C 233.357 125.318,234.377 125.318,235.000 125.262 C 235.623 125.206,235.113 125.160,233.867 125.160 C 232.620 125.160,232.110 125.206,232.733 125.262 M283.378 125.244 C 283.131 125.491,283.153 138.606,283.400 138.759 C 283.510 138.827,283.566 135.842,283.525 132.126 L 283.449 125.368 284.325 125.260 L 285.200 125.152 284.378 125.109 C 283.926 125.086,283.476 125.147,283.378 125.244 M298.067 125.262 C 298.690 125.318,299.710 125.318,300.333 125.262 C 300.957 125.206,300.447 125.160,299.200 125.160 C 297.953 125.160,297.443 125.206,298.067 125.262 M309.667 125.250 C 309.923 125.318,310.343 125.318,310.600 125.250 C 310.857 125.183,310.647 125.129,310.133 125.129 C 309.620 125.129,309.410 125.183,309.667 125.250 M164.918 133.067 C 164.918 137.393,164.955 139.163,164.999 137.000 C 165.044 134.837,165.044 131.297,164.999 129.133 C 164.955 126.970,164.918 128.740,164.918 133.067 M264.649 131.867 C 264.649 135.533,264.686 137.070,264.732 135.282 C 264.778 133.494,264.779 130.494,264.733 128.616 C 264.687 126.737,264.649 128.200,264.649 131.867 M214.781 131.733 C 214.781 135.033,214.819 136.383,214.866 134.733 C 214.913 133.083,214.913 130.383,214.866 128.733 C 214.819 127.083,214.781 128.433,214.781 131.733 M117.447 131.733 C 117.447 134.887,117.485 136.177,117.532 134.600 C 117.579 133.023,117.579 130.443,117.532 128.867 C 117.485 127.290,117.447 128.580,117.447 131.733 M253.980 131.867 C 253.980 134.947,254.019 136.170,254.066 134.586 C 254.113 133.001,254.113 130.481,254.065 128.986 C 254.018 127.490,253.979 128.787,253.980 131.867 M261.180 131.867 C 261.180 134.947,261.219 136.170,261.266 134.586 C 261.313 133.001,261.313 130.481,261.265 128.986 C 261.218 127.490,261.179 128.787,261.180 131.867 M187.291 128.667 C 187.292 129.840,187.339 130.287,187.396 129.660 C 187.452 129.032,187.451 128.072,187.394 127.526 C 187.337 126.980,187.290 127.493,187.291 128.667 M312.354 128.667 C 312.355 129.693,312.404 130.081,312.461 129.527 C 312.519 128.974,312.518 128.134,312.459 127.661 C 312.400 127.187,312.353 127.640,312.354 128.667 M152.000 127.770 C 152.000 127.897,152.300 128.000,152.667 128.000 C 153.033 128.000,153.333 127.954,153.333 127.898 C 153.333 127.842,153.033 127.738,152.667 127.668 C 152.300 127.598,152.000 127.644,152.000 127.770 M221.067 127.770 C 221.067 127.897,221.367 128.000,221.733 128.000 C 222.100 128.000,222.400 127.954,222.400 127.898 C 222.400 127.842,222.100 127.738,221.733 127.668 C 221.367 127.598,221.067 127.644,221.067 127.770 M205.929 130.133 C 205.929 130.647,205.983 130.857,206.050 130.600 C 206.118 130.343,206.118 129.923,206.050 129.667 C 205.983 129.410,205.929 129.620,205.929 130.133 M183.266 131.000 C 182.980 131.784,182.987 131.817,183.341 131.349 C 183.680 130.901,183.881 130.133,183.658 130.133 C 183.617 130.133,183.441 130.523,183.266 131.000 M137.574 131.815 C 137.693 131.934,138.438 131.992,139.229 131.945 L 140.667 131.859 139.012 131.730 C 138.102 131.658,137.455 131.697,137.574 131.815 M141.493 131.671 C 141.655 131.779,141.855 132.047,141.939 132.267 C 142.041 132.534,142.098 132.468,142.112 132.067 C 142.126 131.664,141.980 131.468,141.667 131.471 C 141.379 131.473,141.312 131.550,141.493 131.671 M231.974 131.815 C 232.093 131.934,232.838 131.992,233.629 131.945 L 235.067 131.859 233.412 131.730 C 232.502 131.658,231.855 131.697,231.974 131.815 M297.308 131.815 C 297.427 131.934,298.171 131.992,298.962 131.945 L 300.400 131.859 298.746 131.730 C 297.836 131.658,297.189 131.697,297.308 131.815 M231.901 135.144 C 231.829 135.260,232.182 135.307,232.685 135.248 C 233.188 135.190,233.600 135.095,233.600 135.037 C 233.600 134.837,232.030 134.935,231.901 135.144 M245.791 135.123 L 247.449 135.225 247.538 138.146 L 247.627 141.068 247.614 138.067 L 247.600 135.067 245.867 135.044 L 244.133 135.022 245.791 135.123 M297.234 135.144 C 297.163 135.260,297.516 135.307,298.019 135.248 C 298.522 135.190,298.933 135.095,298.933 135.037 C 298.933 134.837,297.363 134.935,297.234 135.144 M88.467 135.388 C 88.797 135.452,89.337 135.452,89.667 135.388 C 89.997 135.325,89.727 135.273,89.067 135.273 C 88.407 135.273,88.137 135.325,88.467 135.388 M152.172 135.405 C 152.102 135.518,152.545 135.571,153.156 135.524 C 154.950 135.386,155.169 135.264,153.682 135.231 C 152.921 135.214,152.241 135.292,152.172 135.405 M180.648 135.551 C 180.574 135.745,180.553 137.155,180.601 138.685 L 180.688 141.467 180.744 138.482 L 180.800 135.497 181.933 135.395 L 183.067 135.293 181.925 135.247 C 181.190 135.217,180.735 135.325,180.648 135.551 M221.067 135.407 C 221.067 135.521,221.577 135.575,222.200 135.526 C 224.068 135.382,224.227 135.264,222.600 135.231 C 221.757 135.214,221.067 135.293,221.067 135.407 M234.533 135.467 C 234.827 135.593,235.247 135.696,235.467 135.696 C 235.719 135.696,235.670 135.611,235.333 135.467 C 235.040 135.341,234.620 135.237,234.400 135.237 C 234.148 135.237,234.197 135.322,234.533 135.467 M299.867 135.467 C 300.160 135.593,300.580 135.696,300.800 135.696 C 301.052 135.696,301.003 135.611,300.667 135.467 C 300.373 135.341,299.953 135.237,299.733 135.237 C 299.481 135.237,299.530 135.322,299.867 135.467 M198.984 138.952 C 198.952 139.382,198.973 139.733,199.031 139.733 C 199.225 139.733,199.399 138.390,199.220 138.279 C 199.123 138.219,199.017 138.522,198.984 138.952 M107.086 138.933 C 107.184 139.300,107.376 139.780,107.512 140.000 C 107.683 140.278,107.704 140.197,107.580 139.733 C 107.482 139.367,107.291 138.887,107.155 138.667 C 106.983 138.389,106.962 138.470,107.086 138.933 M142.888 140.260 L 142.977 142.121 138.088 142.200 L 133.200 142.279 138.200 142.340 L 143.200 142.400 143.200 140.400 C 143.200 139.300,143.110 138.400,143.000 138.399 C 142.890 138.399,142.840 139.236,142.888 140.260 M237.288 140.260 L 237.377 142.121 232.488 142.200 L 227.600 142.279 232.600 142.340 L 237.600 142.400 237.600 140.400 C 237.600 139.300,237.510 138.400,237.400 138.399 C 237.290 138.399,237.240 139.236,237.288 140.260 M302.622 140.260 L 302.710 142.121 297.822 142.203 L 292.933 142.286 297.867 142.276 L 302.800 142.267 302.878 140.333 C 302.921 139.270,302.861 138.400,302.745 138.399 C 302.629 138.399,302.573 139.236,302.622 140.260 M272.727 138.859 C 273.201 138.918,274.041 138.919,274.594 138.861 C 275.147 138.804,274.760 138.755,273.733 138.754 C 272.707 138.753,272.254 138.800,272.727 138.859 M288.650 140.867 L 287.867 141.733 288.733 140.950 C 289.541 140.220,289.723 140.000,289.517 140.000 C 289.471 140.000,289.081 140.390,288.650 140.867 M176.686 141.219 C 176.588 141.610,176.559 141.981,176.622 142.044 C 176.685 142.107,176.816 141.838,176.914 141.448 C 177.012 141.057,177.041 140.686,176.978 140.623 C 176.915 140.560,176.784 140.828,176.686 141.219 M251.332 141.389 L 251.471 142.112 249.269 142.202 L 247.067 142.291 249.400 142.346 C 251.849 142.403,251.978 142.331,251.444 141.200 C 251.233 140.755,251.215 140.786,251.332 141.389 M200.429 141.488 C 200.110 142.319,200.297 142.400,202.533 142.400 C 204.522 142.400,204.797 142.343,204.779 141.933 C 204.766 141.655,204.704 141.601,204.623 141.800 C 204.363 142.444,200.461 142.247,200.667 141.600 C 200.866 140.971,200.664 140.876,200.429 141.488 M244.397 141.522 C 244.557 142.091,244.486 142.114,242.348 142.201 L 240.133 142.291 242.467 142.346 C 244.870 142.402,245.159 142.258,244.512 141.333 C 244.291 141.019,244.267 141.059,244.397 141.522 M276.554 141.527 C 276.534 142.110,276.465 142.121,272.333 142.201 L 268.133 142.281 272.342 142.341 C 276.693 142.402,277.123 142.297,276.713 141.275 C 276.637 141.087,276.566 141.200,276.554 141.527 M316.522 141.523 C 316.804 142.105,316.778 142.114,314.470 142.201 L 312.133 142.290 314.600 142.345 C 317.157 142.402,317.347 142.319,316.652 141.451 C 316.252 140.952,316.248 140.955,316.522 141.523 M108.387 141.845 C 108.542 142.097,108.035 142.153,106.186 142.086 C 104.864 142.039,103.839 142.090,103.907 142.200 C 103.975 142.310,105.104 142.400,106.416 142.400 C 108.618 142.400,109.264 142.185,108.492 141.708 C 108.295 141.586,108.257 141.635,108.387 141.845 M152.533 141.867 C 151.984 142.043,151.961 142.084,152.400 142.103 C 152.693 142.115,153.113 142.009,153.333 141.867 C 153.801 141.565,153.476 141.565,152.533 141.867 M96.975 142.200 C 97.043 142.310,98.111 142.400,99.349 142.400 C 100.587 142.400,101.600 142.310,101.600 142.200 C 101.600 142.090,100.531 142.000,99.225 142.000 C 97.919 142.000,96.907 142.090,96.975 142.200 M116.800 142.133 C 116.264 142.305,116.238 142.348,116.667 142.355 C 116.960 142.359,117.440 142.259,117.733 142.133 C 118.413 141.841,117.712 141.841,116.800 142.133 M160.800 142.200 C 160.800 142.310,161.850 142.382,163.133 142.360 C 165.573 142.318,165.300 142.201,162.466 142.075 C 161.549 142.034,160.799 142.090,160.800 142.200 M210.133 142.133 L 207.867 142.301 210.200 142.350 C 211.611 142.380,212.533 142.295,212.533 142.133 C 212.533 141.987,212.503 141.889,212.467 141.916 C 212.430 141.944,211.380 142.041,210.133 142.133 M257.467 142.133 C 257.760 142.259,258.180 142.363,258.400 142.363 C 258.652 142.363,258.603 142.278,258.267 142.133 C 257.973 142.007,257.553 141.904,257.333 141.904 C 257.081 141.904,257.130 141.989,257.467 142.133 M279.435 142.209 C 279.550 142.324,281.015 142.384,282.689 142.341 L 285.733 142.264 282.479 142.132 C 280.689 142.059,279.319 142.094,279.435 142.209 M307.467 142.133 L 305.200 142.301 307.533 142.350 C 308.944 142.380,309.867 142.295,309.867 142.133 C 309.867 141.987,309.837 141.889,309.800 141.916 C 309.763 141.944,308.713 142.041,307.467 142.133 M150.467 142.317 C 150.723 142.384,151.143 142.384,151.400 142.317 C 151.657 142.250,151.447 142.195,150.933 142.195 C 150.420 142.195,150.210 142.250,150.467 142.317 M192.479 142.332 C 193.696 142.381,195.616 142.381,196.746 142.331 C 197.876 142.281,196.880 142.241,194.533 142.241 C 192.187 142.242,191.262 142.282,192.479 142.332 M219.403 142.322 C 219.735 142.386,220.215 142.383,220.470 142.317 C 220.725 142.250,220.453 142.198,219.867 142.201 C 219.280 142.204,219.071 142.258,219.403 142.322 " stroke="none" fill="#8c8c9e" fill-rule="evenodd"></path></g></svg>